<mxfile host="app.diagrams.net" modified="2021-09-06T11:58:47.986Z" agent="5.0 (Windows NT 10.0; Win64; x64) AppleWebKit/537.36 (KHTML, like Gecko) Chrome/92.0.4515.159 Safari/537.36" etag="K_SVLWofWyopxRQxbQdI" version="15.0.6" type="github">
  <diagram id="d5CxLOQvHXjHk3dhrmpo" name="Page-1">
    <mxGraphModel dx="1422" dy="762" grid="1" gridSize="10" guides="1" tooltips="1" connect="1" arrows="1" fold="1" page="1" pageScale="1" pageWidth="850" pageHeight="1100" math="0" shadow="0">
      <root>
        <mxCell id="0" />
        <mxCell id="1" parent="0" />
        <mxCell id="zwTteCi4zsDqEtad7-67-4" value="" style="edgeStyle=orthogonalEdgeStyle;rounded=0;orthogonalLoop=1;jettySize=auto;html=1;" edge="1" parent="1" source="zwTteCi4zsDqEtad7-67-2" target="zwTteCi4zsDqEtad7-67-3">
          <mxGeometry relative="1" as="geometry" />
        </mxCell>
        <mxCell id="zwTteCi4zsDqEtad7-67-2" value="Material App" style="rounded=1;whiteSpace=wrap;html=1;" vertex="1" parent="1">
          <mxGeometry x="340" y="120" width="120" height="60" as="geometry" />
        </mxCell>
        <mxCell id="zwTteCi4zsDqEtad7-67-6" value="" style="edgeStyle=orthogonalEdgeStyle;rounded=0;orthogonalLoop=1;jettySize=auto;html=1;" edge="1" parent="1" source="zwTteCi4zsDqEtad7-67-3" target="zwTteCi4zsDqEtad7-67-5">
          <mxGeometry relative="1" as="geometry" />
        </mxCell>
        <mxCell id="zwTteCi4zsDqEtad7-67-8" value="" style="edgeStyle=orthogonalEdgeStyle;rounded=0;orthogonalLoop=1;jettySize=auto;html=1;" edge="1" parent="1" source="zwTteCi4zsDqEtad7-67-3" target="zwTteCi4zsDqEtad7-67-7">
          <mxGeometry relative="1" as="geometry" />
        </mxCell>
        <mxCell id="zwTteCi4zsDqEtad7-67-10" value="" style="edgeStyle=orthogonalEdgeStyle;rounded=0;orthogonalLoop=1;jettySize=auto;html=1;" edge="1" parent="1" source="zwTteCi4zsDqEtad7-67-3" target="zwTteCi4zsDqEtad7-67-9">
          <mxGeometry relative="1" as="geometry" />
        </mxCell>
        <mxCell id="zwTteCi4zsDqEtad7-67-3" value="Scafold" style="rounded=1;whiteSpace=wrap;html=1;" vertex="1" parent="1">
          <mxGeometry x="340" y="260" width="120" height="60" as="geometry" />
        </mxCell>
        <mxCell id="zwTteCi4zsDqEtad7-67-5" value="Color" style="rounded=1;whiteSpace=wrap;html=1;" vertex="1" parent="1">
          <mxGeometry x="80" y="400" width="120" height="60" as="geometry" />
        </mxCell>
        <mxCell id="zwTteCi4zsDqEtad7-67-16" value="" style="edgeStyle=orthogonalEdgeStyle;rounded=0;orthogonalLoop=1;jettySize=auto;html=1;" edge="1" parent="1" source="zwTteCi4zsDqEtad7-67-7" target="zwTteCi4zsDqEtad7-67-15">
          <mxGeometry relative="1" as="geometry" />
        </mxCell>
        <mxCell id="zwTteCi4zsDqEtad7-67-18" value="" style="edgeStyle=orthogonalEdgeStyle;rounded=0;orthogonalLoop=1;jettySize=auto;html=1;" edge="1" parent="1" source="zwTteCi4zsDqEtad7-67-7" target="zwTteCi4zsDqEtad7-67-17">
          <mxGeometry relative="1" as="geometry" />
        </mxCell>
        <mxCell id="zwTteCi4zsDqEtad7-67-7" value="AppBar" style="rounded=1;whiteSpace=wrap;html=1;" vertex="1" parent="1">
          <mxGeometry x="340" y="400" width="120" height="60" as="geometry" />
        </mxCell>
        <mxCell id="zwTteCi4zsDqEtad7-67-12" value="" style="edgeStyle=orthogonalEdgeStyle;rounded=0;orthogonalLoop=1;jettySize=auto;html=1;" edge="1" parent="1" source="zwTteCi4zsDqEtad7-67-9" target="zwTteCi4zsDqEtad7-67-11">
          <mxGeometry relative="1" as="geometry" />
        </mxCell>
        <mxCell id="zwTteCi4zsDqEtad7-67-9" value="Center" style="rounded=1;whiteSpace=wrap;html=1;" vertex="1" parent="1">
          <mxGeometry x="580" y="400" width="120" height="60" as="geometry" />
        </mxCell>
        <mxCell id="zwTteCi4zsDqEtad7-67-14" value="" style="edgeStyle=orthogonalEdgeStyle;rounded=0;orthogonalLoop=1;jettySize=auto;html=1;" edge="1" parent="1" source="zwTteCi4zsDqEtad7-67-11" target="zwTteCi4zsDqEtad7-67-13">
          <mxGeometry relative="1" as="geometry" />
        </mxCell>
        <mxCell id="zwTteCi4zsDqEtad7-67-11" value="Image" style="rounded=1;whiteSpace=wrap;html=1;" vertex="1" parent="1">
          <mxGeometry x="580" y="540" width="120" height="60" as="geometry" />
        </mxCell>
        <mxCell id="zwTteCi4zsDqEtad7-67-13" value="NetworkImage" style="rounded=1;whiteSpace=wrap;html=1;" vertex="1" parent="1">
          <mxGeometry x="580" y="680" width="120" height="60" as="geometry" />
        </mxCell>
        <mxCell id="zwTteCi4zsDqEtad7-67-15" value="Text" style="rounded=1;whiteSpace=wrap;html=1;" vertex="1" parent="1">
          <mxGeometry x="340" y="540" width="120" height="60" as="geometry" />
        </mxCell>
        <mxCell id="zwTteCi4zsDqEtad7-67-17" value="Color" style="rounded=1;whiteSpace=wrap;html=1;" vertex="1" parent="1">
          <mxGeometry x="160" y="540" width="120" height="60" as="geometry" />
        </mxCell>
        <mxCell id="zwTteCi4zsDqEtad7-67-19" value="" style="rounded=0;whiteSpace=wrap;html=1;" vertex="1" parent="1">
          <mxGeometry x="360" y="360" width="120" height="60" as="geometry" />
        </mxCell>
        <mxCell id="zwTteCi4zsDqEtad7-67-20" value="" style="rounded=0;whiteSpace=wrap;html=1;" vertex="1" parent="1">
          <mxGeometry x="360" y="360" width="120" height="60" as="geometry" />
        </mxCell>
        <mxCell id="zwTteCi4zsDqEtad7-67-21" value="App Structure for the I am rich app" style="rounded=0;whiteSpace=wrap;html=1;" vertex="1" parent="1">
          <mxGeometry x="70" y="20" width="710" height="60" as="geometry" />
        </mxCell>
      </root>
    </mxGraphModel>
  </diagram>
</mxfile>
